<svg xmlns="http://www.w3.org/2000/svg" width="297mm" height="210mm" viewBox="0 0 297 210">
<title>A4 cassette ratio mockup 120 x 71 x 13 mm</title><rect width="297" height="210" fill="white"/>
<g id="CUT" fill="none" stroke="#000" stroke-width="0.35" stroke-linejoin="round"><polyline points="13,69 16,49 130,49 133,69"/><polyline points="133,69 135,53 144,53 146,69"/><polyline points="146,69 149,49 263,49 266,69"/><polyline points="266,69 268,53 277,53 279,69"/><polyline points="13,140 16,160 130,160 133,140"/><polyline points="133,140 135,156 144,156 146,140"/><polyline points="146,140 149,160 263,160 266,140"/><polyline points="266,140 268,156 277,156 279,140"/><polyline points="13,69 13,140"/><polyline points="279,69 285,72 285,137 279,140"/></g>
<g id="FOLD" fill="none" stroke="#e1261c" stroke-width="0.28" stroke-dasharray="4 2"><polyline points="13,69 279,69"/><polyline points="13,140 279,140"/><polyline points="133,69 133,140"/><polyline points="146,69 146,140"/><polyline points="266,69 266,140"/><polyline points="279,69 279,140"/></g>
<g id="GUIDES" fill="#999" font-family="Arial,sans-serif" font-size="3.2" text-anchor="middle"><text x="73" y="106">FRONT 120 x 71</text><text x="139.5" y="106">SIDE 13</text><text x="206" y="106">BACK 120 x 71</text><text x="272.5" y="106">SIDE 13</text><text x="289" y="106" transform="rotate(90 289 106)">GLUE 6</text><text x="148.5" y="202">A4 landscape | 100% | cassette ratio mockup | 1.69:1</text></g></svg>