<svg xmlns="http://www.w3.org/2000/svg" width="297mm" height="210mm" viewBox="0 0 297 210"><title>Cassette ratio mockup 120 x 75.4 x 13 mm</title><rect width="297" height="210" fill="white"/><g id="CUT" fill="none" stroke="#000" stroke-width="0.35" stroke-linejoin="round"><polyline points="13,69 16,49 130,49 133,69"/><polyline points="133,69 135,53 144,53 146,69"/><polyline points="146,69 149,49 263,49 266,69"/><polyline points="266,69 268,53 277,53 279,69"/><polyline points="13,144.4 16,165.4 130,165.4 133,144.4"/><polyline points="133,144.4 135,161.4 144,161.4 146,144.4"/><polyline points="146,144.4 149,165.4 263,165.4 266,144.4"/><polyline points="266,144.4 268,161.4 277,161.4 279,144.4"/><polyline points="13,69 13,144.4"/><polyline points="279,69 285,72 285,141.4 279,144.4"/></g><g id="FOLD" fill="none" stroke="#e1261c" stroke-width="0.28" stroke-dasharray="4 2"><polyline points="13,69 279,69"/><polyline points="13,144.4 279,144.4"/><polyline points="133,69 133,144.4"/><polyline points="146,69 146,144.4"/><polyline points="266,69 266,144.4"/><polyline points="279,69 279,144.4"/></g><g id="GUIDES" fill="#999" font-family="Arial,sans-serif" font-size="3.2" text-anchor="middle"><text x="73" y="108">FRONT 120 x 75.4</text><text x="139.5" y="108">SIDE 13</text><text x="206" y="108">BACK 120 x 75.4</text><text x="272.5" y="108">SIDE 13</text><text x="289" y="108" transform="rotate(90 289 108)">GLUE 6</text><text x="148.5" y="202">A4 landscape | 100% | cassette ratio 1.59:1</text></g></svg>